<svg width="14" height="13" viewBox="0 0 14 13" fill="none" xmlns="http://www.w3.org/2000/svg">
<path d="M13.0317 4.44252L11.865 3.85919C11.6492 3.75419 11.3808 3.83585 11.2758 4.05169C11.165 4.27335 11.2525 4.53585 11.4683 4.64085L12.3958 5.10169V7.89585L10.2083 7.90169V1.91669C10.2083 0.75002 9.42666 0.166687 8.45832 0.166687H3.79166C2.82332 0.166687 2.04166 0.75002 2.04166 1.91669V11.3959H1.16666C0.92749 11.3959 0.729156 11.5942 0.729156 11.8334C0.729156 12.0725 0.92749 12.2709 1.16666 12.2709H11.0833C11.3225 12.2709 11.5208 12.0725 11.5208 11.8334C11.5208 11.5942 11.3225 11.3959 11.0833 11.3959H10.2083V8.77669L12.8333 8.77085C13.0783 8.77085 13.2708 8.57252 13.2708 8.33335V4.83335C13.2708 4.67002 13.1775 4.51835 13.0317 4.44252ZM3.49999 3.01919C3.49999 2.20835 3.99582 1.91669 4.60249 1.91669H7.65332C8.25416 1.91669 8.74999 2.20835 8.74999 3.01919V3.73669C8.74999 4.54169 8.25416 4.83335 7.64749 4.83335H4.60249C3.99582 4.83335 3.49999 4.54169 3.49999 3.73085V3.01919ZM3.79166 6.14585H5.54166C5.78082 6.14585 5.97916 6.34419 5.97916 6.58335C5.97916 6.82252 5.78082 7.02085 5.54166 7.02085H3.79166C3.55249 7.02085 3.35416 6.82252 3.35416 6.58335C3.35416 6.34419 3.55249 6.14585 3.79166 6.14585Z" fill="#90A3BF"/>
</svg>
