<svg width="26" height="26" viewBox="0 0 26 26" fill="none" xmlns="http://www.w3.org/2000/svg">
<path d="M8.81988 7.57718L11.6645 4.72017V16.6327C11.6645 16.9621 11.7953 17.2781 12.0283 17.511C12.2612 17.744 12.5772 17.8748 12.9066 17.8748C13.2361 17.8748 13.552 17.744 13.785 17.511C14.018 17.2781 14.1488 16.9621 14.1488 16.6327V4.72017L16.9934 7.57718C17.1089 7.69361 17.2463 7.78602 17.3976 7.84909C17.549 7.91215 17.7114 7.94462 17.8754 7.94462C18.0393 7.94462 18.2017 7.91215 18.3531 7.84909C18.5044 7.78602 18.6418 7.69361 18.7573 7.57718C18.8737 7.46171 18.9661 7.32432 19.0292 7.17295C19.0923 7.02158 19.1247 6.85922 19.1247 6.69524C19.1247 6.53126 19.0923 6.3689 19.0292 6.21753C18.9661 6.06615 18.8737 5.92877 18.7573 5.81329L13.7886 0.844577C13.6705 0.731489 13.5312 0.64284 13.3787 0.58372C13.0763 0.459479 12.737 0.459479 12.4346 0.58372C12.2821 0.64284 12.1428 0.731489 12.0247 0.844577L7.05599 5.81329C6.94017 5.92911 6.8483 6.06661 6.78562 6.21793C6.72294 6.36926 6.69067 6.53145 6.69067 6.69524C6.69067 6.85903 6.72294 7.02122 6.78562 7.17254C6.8483 7.32387 6.94017 7.46137 7.05599 7.57718C7.17181 7.693 7.3093 7.78488 7.46063 7.84756C7.61195 7.91024 7.77414 7.9425 7.93793 7.9425C8.10173 7.9425 8.26392 7.91024 8.41524 7.84756C8.56657 7.78488 8.70406 7.693 8.81988 7.57718ZM24.0863 12.9061C23.7568 12.9061 23.4409 13.037 23.2079 13.27C22.9749 13.5029 22.8441 13.8189 22.8441 14.1483V21.6014C22.8441 21.9308 22.7132 22.2468 22.4803 22.4797C22.2473 22.7127 21.9313 22.8436 21.6019 22.8436H4.2114C3.88195 22.8436 3.566 22.7127 3.33305 22.4797C3.10009 22.2468 2.96922 21.9308 2.96922 21.6014V14.1483C2.96922 13.8189 2.83835 13.5029 2.60539 13.27C2.37244 13.037 2.05649 12.9061 1.72704 12.9061C1.3976 12.9061 1.08164 13.037 0.848689 13.27C0.615735 13.5029 0.484863 13.8189 0.484863 14.1483V21.6014C0.484863 22.5897 0.877479 23.5376 1.57634 24.2364C2.2752 24.9353 3.22306 25.3279 4.2114 25.3279H21.6019C22.5902 25.3279 23.5381 24.9353 24.237 24.2364C24.9358 23.5376 25.3284 22.5897 25.3284 21.6014V14.1483C25.3284 13.8189 25.1976 13.5029 24.9646 13.27C24.7317 13.037 24.4157 12.9061 24.0863 12.9061Z" fill="#3563E9"/>
</svg>

